<svg xmlns="http://www.w3.org/2000/svg" fill="none" viewBox="0 0 24 25" class="injected-svg" data-src="https://static.elfsight.com/icons/app-all-in-one-reviews-icons-linkedin-multicolor-stroke.svg" xmlns:xlink="http://www.w3.org/1999/xlink"><g clip-path="url(#a-1)"><path fill="#fff" stroke="#fff" stroke-linejoin="round" stroke-width="2" d="M4 1.5a3 3 0 0 0-3 3v16a3 3 0 0 0 3 3h16a3 3 0 0 0 3-3v-16a3 3 0 0 0-3-3H4Z"></path><path fill="#0A66C2" d="M2 4.5a2 2 0 0 1 2-2h16a2 2 0 0 1 2 2v16a2 2 0 0 1-2 2H4a2 2 0 0 1-2-2v-16Z"></path><path fill="#fff" d="M19.155 19.644h-2.963v-4.641c0-1.107-.02-2.532-1.542-2.532-1.543 0-1.78 1.207-1.78 2.45v4.723H9.907V10.1h2.845v1.305h.04a3.125 3.125 0 0 1 2.806-1.542c3.004 0 3.559 1.976 3.559 4.547l-.002 5.235ZM6.563 8.794a1.728 1.728 0 0 1-1.72-1.718c0-.943.777-1.72 1.72-1.72a1.73 1.73 0 0 1 1.72 1.72c0 .943-.776 1.718-1.72 1.718Zm1.482 10.85H5.078V10.1h2.967v9.545Z"></path></g><defs><clipPath id="a-1"><path fill="#fff" d="M0 0h24v24H0z" transform="translate(0 .5)"></path></clipPath></defs></svg>