<svg width="109" height="16" viewBox="0 0 109 16" fill="none" xmlns="http://www.w3.org/2000/svg">
<g clip-path="url(#clip0_1_58)">
<path fill-rule="evenodd" clip-rule="evenodd" d="M8.36332 0L10.3376 6.07631H16.7266L11.5578 9.83163L13.5322 15.9079L8.36332 12.1526L3.19446 15.9079L5.16873 9.83163L0 6.07631H6.38904L8.36332 0Z" fill="#EDA708"/>
<path fill-rule="evenodd" clip-rule="evenodd" d="M31.3558 0L33.33 6.07631H39.7191L34.5502 9.83163L36.5246 15.9079L31.3558 12.1526L26.1869 15.9079L28.1612 9.83163L22.9924 6.07631H29.3815L31.3558 0Z" fill="#EDA708"/>
<path fill-rule="evenodd" clip-rule="evenodd" d="M54.2422 0L56.2165 6.07631H62.6056L57.4367 9.83163L59.4111 15.9079L54.2422 12.1526L49.0734 15.9079L51.0476 9.83163L45.8789 6.07631H52.2679L54.2422 0Z" fill="#EDA708"/>
<path fill-rule="evenodd" clip-rule="evenodd" d="M77.127 0L79.1013 6.07631H85.4903L80.3215 9.83163L82.2959 15.9079L77.127 12.1526L71.9581 15.9079L73.9324 9.83163L68.7637 6.07631H75.1527L77.127 0Z" fill="#EDA708"/>
<path fill-rule="evenodd" clip-rule="evenodd" d="M100.004 0L101.978 6.07631H108.367L103.198 9.83163L105.173 15.9079L100.004 12.1526L94.8351 15.9079L96.8094 9.83163L91.6406 6.07631H98.0297L100.004 0Z" fill="#EDA708"/>
</g>
<defs>
<clipPath id="clip0_1_58">
<rect width="108.431" height="16" fill="white"/>
</clipPath>
</defs>
</svg>
